<svg width="218" height="101" viewBox="0 0 218 101" fill="none" xmlns="http://www.w3.org/2000/svg">
<path d="M51.8101 25.4039L68.6884 42.2823L38.1365 72.8342L21.2582 55.9558L51.8101 25.4039ZM40.5401 77.6947L73.549 44.6858C74.2255 44.0093 74.5638 43.2081 74.5638 42.2823C74.5638 41.3564 74.2255 40.5552 73.549 39.8787L54.2137 20.5434C53.5727 19.9024 52.7715 19.582 51.8101 19.582C50.8487 19.582 50.0475 19.9024 49.4065 20.5434L16.3976 53.5523C15.7211 54.2288 15.3828 55.03 15.3828 55.9558C15.3828 56.8817 15.7211 57.6828 16.3976 58.3594L35.7329 77.6947C36.3739 78.3357 37.1751 78.6561 38.1365 78.6561C39.0979 78.6561 39.8991 78.3357 40.5401 77.6947ZM88.0237 43.671L39.5786 92.1695C38.2611 93.487 36.6499 94.1458 34.7448 94.1458C32.8398 94.1458 31.2285 93.487 29.911 92.1695L23.181 85.4395C25.1751 83.4455 26.1721 81.0241 26.1721 78.1754C26.1721 75.3268 25.1751 72.9054 23.181 70.9113C21.1869 68.9173 18.7656 67.9202 15.9169 67.9202C13.0682 67.9202 10.6469 68.9173 8.65282 70.9113L1.97626 64.1814C0.658754 62.8639 0 61.2526 0 59.3475C0 57.4425 0.658754 55.8312 1.97626 54.5137L50.4214 6.12201C51.7389 4.80451 53.3501 4.14575 55.2552 4.14575C57.1602 4.14575 58.7715 4.80451 60.089 6.12201L66.7656 12.7986C64.7715 14.7926 63.7745 17.214 63.7745 20.0627C63.7745 22.9113 64.7715 25.3327 66.7656 27.3268C68.7596 29.3208 71.181 30.3179 74.0297 30.3179C76.8783 30.3179 79.2997 29.3208 81.2938 27.3268L88.0237 34.0033C89.3412 35.3208 90 36.9321 90 38.8371C90 40.7422 89.3412 42.3535 88.0237 43.671Z" fill="#7958CE"/>
<path d="M104.14 38V4.54545H126.683V10.3771H111.214V18.3487H125.523V24.1804H111.214V32.1683H126.748V38H104.14ZM137.295 4.54545V38H130.336V4.54545H137.295ZM139.885 10.3771V4.54545H167.361V10.3771H157.119V38H150.128V10.3771H139.885ZM177.711 38.4901C175.131 38.4901 172.909 37.9673 171.047 36.9219C169.195 35.8655 167.769 34.3736 166.767 32.446C165.765 30.5076 165.264 28.2152 165.264 25.5689C165.264 22.9879 165.765 20.7228 166.767 18.7734C167.769 16.8241 169.179 15.3049 170.998 14.2159C172.827 13.1269 174.973 12.5824 177.434 12.5824C179.089 12.5824 180.63 12.8492 182.057 13.3828C183.494 13.9055 184.747 14.6951 185.814 15.7514C186.892 16.8078 187.73 18.1364 188.329 19.7372C188.928 21.3272 189.228 23.1894 189.228 25.3239V27.2351H168.041V22.9226H182.677C182.677 21.9207 182.46 21.0331 182.024 20.2599C181.588 19.4867 180.984 18.8823 180.211 18.4467C179.448 18.0002 178.561 17.777 177.548 17.777C176.492 17.777 175.555 18.022 174.738 18.5121C173.933 18.9912 173.301 19.6392 172.844 20.456C172.386 21.2618 172.152 22.1603 172.141 23.1513V27.2514C172.141 28.4929 172.37 29.5656 172.827 30.4695C173.296 31.3733 173.954 32.0703 174.804 32.5604C175.653 33.0504 176.661 33.2955 177.826 33.2955C178.599 33.2955 179.307 33.1866 179.949 32.9688C180.592 32.7509 181.142 32.4242 181.599 31.9886C182.057 31.553 182.405 31.0194 182.645 30.3878L189.081 30.8125C188.754 32.3589 188.084 33.7093 187.072 34.8636C186.07 36.0071 184.774 36.9001 183.184 37.5426C181.605 38.1742 179.781 38.4901 177.711 38.4901ZM208.019 27.3168V12.9091H214.978V38H208.297V33.4425H208.036C207.469 34.9126 206.527 36.0942 205.21 36.9872C203.903 37.8802 202.307 38.3267 200.423 38.3267C198.746 38.3267 197.271 37.9455 195.996 37.1832C194.722 36.4209 193.726 35.3374 193.007 33.9325C192.299 32.5277 191.94 30.8452 191.929 28.8849V12.9091H198.888V27.6435C198.899 29.1245 199.296 30.2952 200.08 31.1555C200.864 32.0159 201.915 32.446 203.233 32.446C204.072 32.446 204.856 32.2554 205.585 31.8743C206.315 31.4822 206.903 30.9051 207.349 30.1428C207.807 29.3804 208.03 28.4384 208.019 27.3168Z" fill="#FCFCFC"/>
<path d="M103.995 59.9091V50.3636H141.921V59.9091H128.796V94H117.12V59.9091H103.995ZM144.75 94V61.2727H156.512V94H144.75ZM150.631 57.8636C149.04 57.8636 147.676 57.3381 146.54 56.2869C145.404 55.2358 144.835 53.9716 144.835 52.4943C144.835 51.017 145.404 49.7528 146.54 48.7017C147.676 47.6506 149.04 47.125 150.631 47.125C152.236 47.125 153.6 47.6506 154.722 48.7017C155.858 49.7528 156.426 51.017 156.426 52.4943C156.426 53.9716 155.858 55.2358 154.722 56.2869C153.6 57.3381 152.236 57.8636 150.631 57.8636ZM171.272 86.2443L171.357 72.267H172.892L180.818 61.2727H194.028L180.732 78.4034H177.409L171.272 86.2443ZM160.704 94V50.3636H172.465V94H160.704ZM180.903 94L173.403 81.0455L181.073 72.6932L194.369 94H180.903ZM214.808 61.2727V69.7955H193.245V61.2727H214.808ZM197.421 53.4318H209.183V83.4744C209.183 83.929 209.261 84.3125 209.417 84.625C209.573 84.9233 209.815 85.1506 210.142 85.3068C210.468 85.4489 210.887 85.5199 211.399 85.5199C211.754 85.5199 212.166 85.4773 212.635 85.392C213.117 85.3068 213.473 85.2358 213.7 85.179L215.404 93.446C214.879 93.6023 214.126 93.794 213.146 94.0213C212.18 94.2486 211.029 94.3977 209.694 94.4688C206.995 94.6108 204.73 94.3338 202.897 93.6378C201.065 92.9276 199.687 91.8125 198.764 90.2926C197.84 88.7727 197.393 86.8693 197.421 84.5824V53.4318Z" fill="#7958CE"/>
</svg>
